<svg width="16" height="16" fill="none" xmlns="http://www.w3.org/2000/svg"><path d="M8 0a8 8 0 100 16A8 8 0 008 0zm0 14.857A6.857 6.857 0 118 1.143a6.857 6.857 0 010 13.714z" fill="url(#paint0_linear_138_1437)"/><path d="M8 0a8 8 0 100 16A8 8 0 008 0zm0 14.857A6.857 6.857 0 118 1.143a6.857 6.857 0 010 13.714z" fill="#F2F2FA" fill-opacity=".5"/><path d="M7.429 3.429h1.143v6.285H7.429V3.43z" fill="url(#paint1_linear_138_1437)"/><path d="M7.429 3.429h1.143v6.285H7.429V3.43z" fill="#F2F2FA" fill-opacity=".5"/><path d="M8 11.428a.857.857 0 100 1.715.857.857 0 000-1.715z" fill="url(#paint2_linear_138_1437)"/><path d="M8 11.428a.857.857 0 100 1.715.857.857 0 000-1.715z" fill="#F2F2FA" fill-opacity=".5"/><defs><linearGradient id="paint0_linear_138_1437" x1=".676" y1="-1.986" x2="17.636" y2="-.518" gradientUnits="userSpaceOnUse"><stop stop-color="#A4FFB8"/><stop offset="1" stop-color="#46A6FF"/></linearGradient><linearGradient id="paint1_linear_138_1437" x1=".676" y1="-1.986" x2="17.636" y2="-.518" gradientUnits="userSpaceOnUse"><stop stop-color="#A4FFB8"/><stop offset="1" stop-color="#46A6FF"/></linearGradient><linearGradient id="paint2_linear_138_1437" x1=".676" y1="-1.986" x2="17.636" y2="-.518" gradientUnits="userSpaceOnUse"><stop stop-color="#A4FFB8"/><stop offset="1" stop-color="#46A6FF"/></linearGradient></defs></svg>