<svg width="56" height="46" fill="none" xmlns="http://www.w3.org/2000/svg"><path fill-rule="evenodd" clip-rule="evenodd" d="M22.427 40.669L10.642 28.884l-8.25-8.25a4.996 4.996 0 01-.005-7.066l8.29-8.29c6.504-6.445 17.008-6.42 23.499.072L45.96 17.135l.054.054 8.195 8.195a4.996 4.996 0 01.006 7.066l-8.237 8.237c-6.499 6.498-17.043 6.49-23.552-.018zM26.523 7.11C22.617 3.205 16.29 3.2 12.39 7.1c-3.899 3.898-3.894 10.225.011 14.13L30.08 38.908c3.905 3.905 10.232 3.91 14.131.011 3.9-3.9 3.895-10.226-.01-14.131L26.522 7.11zM17.25 19.95a5.573 5.573 0 107.881-7.882 5.573 5.573 0 00-7.881 7.882zm1.027-2.742a2.18 2.18 0 103.084-3.084 2.18 2.18 0 00-3.084 3.084zM31.3 34a5.573 5.573 0 107.88-7.88A5.573 5.573 0 0031.3 34zm1.027-2.741a2.18 2.18 0 103.084-3.084 2.18 2.18 0 00-3.084 3.084z" fill="#292933"/></svg>