<svg width="15" height="10" fill="none" xmlns="http://www.w3.org/2000/svg"><path d="M14 1.5V5a4 4 0 01-4 4H1.5a.5.5 0 01-.5-.5V4.979A4 4 0 015 1h5.018v0H13.5s0 0 0 0a.5.5 0 01.5.5z" stroke="url(#paint0_linear_124_1066)" stroke-width="2"/><path d="M14 1.5V5a4 4 0 01-4 4H1.5a.5.5 0 01-.5-.5V4.979A4 4 0 015 1h5.018v0H13.5s0 0 0 0a.5.5 0 01.5.5z" stroke="#F2F2FA" stroke-opacity=".5" stroke-width="2"/><defs><linearGradient id="paint0_linear_124_1066" x1=".634" y1="-1.241" x2="16.387" y2=".804" gradientUnits="userSpaceOnUse"><stop stop-color="#A4FFB8"/><stop offset="1" stop-color="#46A6FF"/></linearGradient></defs></svg>