<svg width="178" height="28" fill="none" xmlns="http://www.w3.org/2000/svg"><path fill-rule="evenodd" clip-rule="evenodd" d="M27.782 27.782H4.166A4.167 4.167 0 010 23.613v-9.787C.034 6.185 6.24 0 13.89 0h23.616a4.167 4.167 0 014.167 4.167v9.724c0 7.671-6.219 13.89-13.89 13.89zM10.418 5.556a8.334 8.334 0 100 16.67h20.836a8.334 8.334 0 100-16.67H10.418zm6.621 11.34l.779-1.713a1.389 1.389 0 00-.718-1.851l-7.46-3.198a1.39 1.39 0 00-1.62.393l-.967 1.175a1.39 1.39 0 00.09 1.865l3.736 3.737c.26.26.614.407.983.407h3.912a1.39 1.39 0 001.265-.815zm7.594 0l-.778-1.713a1.389 1.389 0 01.717-1.851l7.461-3.198a1.39 1.39 0 011.62.393l.967 1.175a1.39 1.39 0 01-.09 1.865l-3.737 3.737a1.39 1.39 0 01-.982.407h-3.913a1.39 1.39 0 01-1.265-.815zm134.248 1.547c.356-.87.534-1.823.534-2.86v-3.252c0-1.029-.178-1.979-.534-2.849a6.623 6.623 0 00-1.484-2.255 6.783 6.783 0 00-2.255-1.484c-.863-.356-1.804-.534-2.825-.534h-4.178c-1.021 0-1.967.178-2.837.534a6.773 6.773 0 00-2.255 1.484 6.77 6.77 0 00-1.496 2.255c-.356.87-.534 1.82-.534 2.849v3.252c0 1.037.178 1.99.534 2.86a6.932 6.932 0 001.496 2.256 6.77 6.77 0 002.255 1.483c.87.349 1.816.523 2.837.523h4.178c1.021 0 1.962-.174 2.825-.523a6.78 6.78 0 002.255-1.483 6.779 6.779 0 001.484-2.256zm-2.849-7.762c.198.49.297 1.04.297 1.65v3.252c0 .61-.099 1.163-.297 1.662-.19.49-.463.914-.819 1.27a3.823 3.823 0 01-1.282.819 4.505 4.505 0 01-1.638.285h-4.154a4.594 4.594 0 01-1.65-.285 3.85 3.85 0 01-1.27-.82 3.767 3.767 0 01-.831-1.27 4.633 4.633 0 01-.285-1.661v-3.252c0-.61.095-1.16.285-1.65.198-.499.475-.922.831-1.27.356-.356.779-.63 1.27-.82a4.432 4.432 0 011.65-.296h4.178a4.31 4.31 0 011.626.297c.498.19.922.463 1.27.819.356.348.629.771.819 1.27zm-17.377 9.27a4.17 4.17 0 00.202-1.223v-.593c0-.602-.068-1.151-.202-1.65a5.571 5.571 0 00-.546-1.341 4.869 4.869 0 00-.807-1.045 5.292 5.292 0 00-.973-.771 5.849 5.849 0 00.878-1.78 6.424 6.424 0 00.273-1.77v-.58c0-.69-.127-1.27-.38-1.746a3.386 3.386 0 00-.938-1.151 3.61 3.61 0 00-1.21-.653 4.158 4.158 0 00-1.223-.202h-10.326a1.576 1.576 0 00-1.116.451 1.623 1.623 0 00-.321.499 1.56 1.56 0 00-.118.605v13.911a1.59 1.59 0 00.439 1.116 1.623 1.623 0 001.116.44h11.715c.688 0 1.27-.123 1.745-.369a3.597 3.597 0 001.792-2.148zm-3.074-2.896c.126.316.19.676.19 1.08v.57a.88.88 0 01-.072.391.476.476 0 01-.166.202.486.486 0 01-.213.071c-.08.008-.147.012-.202.012h-10.184V8.532h8.795c.427 0 .641.222.641.665v.582c0 .403-.063.767-.19 1.092a2.28 2.28 0 01-1.353 1.353 3.158 3.158 0 01-1.092.178h-5.567v3.11h6.956c.403 0 .767.063 1.092.19.324.118.601.292.831.522.229.23.407.506.534.83zm42.03-8.523h-6.801v13.935h-3.087V8.532h-6.813V5.446h16.701v3.086zM73.809 15.583c0 1.037-.178 1.99-.534 2.86A6.78 6.78 0 0171.79 20.7a6.778 6.778 0 01-2.255 1.483c-.863.349-1.804.523-2.825.523h-4.178c-1.02 0-1.967-.174-2.837-.523A6.779 6.779 0 0157.44 20.7a6.932 6.932 0 01-1.496-2.256c-.356-.87-.534-1.823-.534-2.86v-3.252c0-1.029.178-1.979.534-2.849a6.77 6.77 0 011.496-2.255 6.78 6.78 0 012.255-1.484c.87-.356 1.816-.534 2.837-.534h4.178c1.02 0 1.962.178 2.825.534a6.78 6.78 0 012.255 1.484 6.624 6.624 0 011.484 2.255c.356.87.534 1.82.534 2.849v3.252zm-3.086-3.252c0-.61-.1-1.16-.297-1.65a3.483 3.483 0 00-.819-1.27 3.483 3.483 0 00-1.27-.82 4.31 4.31 0 00-1.626-.296h-4.178c-.602 0-1.151.099-1.65.297a3.62 3.62 0 00-1.27.819 3.614 3.614 0 00-.83 1.27 4.54 4.54 0 00-.286 1.65v3.252c0 .61.095 1.163.285 1.662.198.49.475.914.831 1.27.356.348.78.62 1.27.819.498.19 1.048.285 1.65.285h4.154c.602 0 1.148-.095 1.638-.285a3.816 3.816 0 001.282-.82c.356-.355.63-.779.82-1.27a4.47 4.47 0 00.296-1.661v-3.252zm23.145 8.819c0 .221-.043.427-.13.617a1.49 1.49 0 01-.819.819c-.19.08-.392.119-.605.119-.19 0-.384-.036-.582-.107a1.357 1.357 0 01-.51-.344L79.946 10.479v11.988h-3.087V6.764c0-.317.087-.602.262-.855a1.68 1.68 0 01.688-.581c.293-.119.594-.147.902-.083.309.055.574.197.795.427l11.276 11.763V5.446h3.087V21.15zm7.846-5.638h9.745v-3.11h-9.745v3.11zm0 6.955h11.134v-3.086h-11.11c-.411 0-.724-.107-.938-.32-.213-.214-.32-.523-.32-.926V8.532h12.368V5.446h-13.9a1.578 1.578 0 00-1.115.451 1.635 1.635 0 00-.32.499c-.08.19-.12.392-.12.605v11.134c0 .8.143 1.476.428 2.03a4.36 4.36 0 001.08 1.34c.435.341.906.586 1.413.737.506.15.973.225 1.4.225z" fill="#F2F2FA"/></svg>