<svg width="55" height="46" fill="none" xmlns="http://www.w3.org/2000/svg"><path fill-rule="evenodd" clip-rule="evenodd" d="M9.784 29.319L21.57 41.104c6.508 6.509 17.053 6.517 23.552.018l8.236-8.237a4.996 4.996 0 00-.005-7.065l-8.196-8.196-.054-.054L33.318 5.785C26.828-.705 16.323-.732 9.82 5.713l-8.29 8.29a4.996 4.996 0 00.005 7.066l8.25 8.25zm1.75-21.784c3.9-3.9 10.226-3.895 14.131.01l17.678 17.678c3.905 3.905 3.91 10.232.01 14.132-3.898 3.899-10.225 3.894-14.13-.011L11.545 21.666c-3.905-3.905-3.91-10.232-.011-14.131zm16.585 21.678l.79-2.113a1.663 1.663 0 012.177-.96l9.04 3.622a1.668 1.668 0 011.04 1.708l-.174 1.815a1.662 1.662 0 01-1.657 1.504L33 34.784c-.441 0-.865-.176-1.178-.489l-3.32-3.32a1.667 1.667 0 01-.382-1.762zm-6.444-6.444l2.113-.79a1.663 1.663 0 00.96-2.178l-3.622-9.039a1.668 1.668 0 00-1.708-1.04l-1.815.174a1.662 1.662 0 00-1.504 1.656l.005 6.336c0 .442.177.866.489 1.178l3.32 3.32a1.667 1.667 0 001.762.383z" fill="url(#paint0_linear_1882_2311)"/><defs><linearGradient id="paint0_linear_1882_2311" x1="25.948" y1="-7.428" x2="58.248" y2="34.53" gradientUnits="userSpaceOnUse"><stop stop-color="#A4FFB8"/><stop offset="1" stop-color="#46A6FF"/></linearGradient></defs></svg>